<svg width="325" height="228" viewBox="0 0 325 228" fill="none" xmlns="http://www.w3.org/2000/svg">
<g filter="url(#filter0_f_232_178)">
<path d="M234.16 95.1746C233.226 95.1746 232.291 95.2094 231.357 95.2789C228.207 76.9658 212.321 62.9964 193.147 62.9964C184.391 62.9964 176.327 65.9154 169.82 70.8151C162.794 58.3747 149.504 50 134.276 50C111.71 50 93.4356 68.3479 93.4356 91.0047C93.4356 92.4294 93.5049 93.8541 93.6433 95.2441C92.7088 95.1746 91.7743 95.1399 90.8399 95.1399C68.2741 95.1399 50 113.488 50 136.145C50 158.801 68.2741 177.149 90.8399 177.149H234.126C256.691 177.149 274.965 158.801 274.965 136.145C274.965 113.488 256.726 95.1746 234.16 95.1746Z" fill="url(#paint0_linear_232_178)" fill-opacity="0.3"/>
</g>
<path d="M234.16 89.1746C233.226 89.1746 232.291 89.2094 231.357 89.2789C228.207 70.9658 212.321 56.9964 193.147 56.9964C184.391 56.9964 176.327 59.9154 169.82 64.8151C162.794 52.3747 149.504 44 134.276 44C111.71 44 93.4356 62.3479 93.4356 85.0047C93.4356 86.4294 93.5049 87.8541 93.6433 89.2441C92.7088 89.1746 91.7743 89.1399 90.8399 89.1399C68.2741 89.1399 50 107.488 50 130.145C50 152.801 68.2741 171.149 90.8399 171.149H234.126C256.691 171.149 274.965 152.801 274.965 130.145C274.965 107.488 256.726 89.1746 234.16 89.1746Z" fill="#AAD0E2"/>
<path d="M234.16 89.1746C233.226 89.1746 232.291 89.2094 231.357 89.2789C228.207 70.9658 212.321 56.9964 193.147 56.9964C184.391 56.9964 176.327 59.9154 169.82 64.8151C162.794 52.3747 149.504 44 134.276 44C111.71 44 93.4356 62.3479 93.4356 85.0047C93.4356 86.4294 93.5049 87.8541 93.6433 89.2441C92.7088 89.1746 91.7743 89.1399 90.8399 89.1399C68.2741 89.1399 50 107.488 50 130.145C50 152.801 68.2741 171.149 90.8399 171.149H234.126C256.691 171.149 274.965 152.801 274.965 130.145C274.965 107.488 256.726 89.1746 234.16 89.1746Z" fill="url(#paint1_linear_232_178)"/>
<path d="M150.854 53.1041C147.081 51.8878 143.032 51.2276 138.844 51.2276C117.074 51.2276 99.4578 68.95 99.4578 90.7728C99.4578 92.1628 99.527 93.518 99.6654 94.8733C98.7656 94.8038 97.8657 94.769 96.9658 94.769C75.1961 94.769 57.5796 112.491 57.5796 134.314C57.5796 141.507 59.4831 148.214 62.8057 154.017C61.3175 136.156 63.9824 102.101 106.587 102.935C106.172 91.3288 108.214 54.7721 150.854 53.1041Z" fill="#B298FF"/>
<path d="M110.602 171.149H234.16C256.726 171.149 275 152.801 275 130.145C275 125.314 274.169 120.658 272.612 116.349C245.789 169.481 154.972 164.79 110.602 171.149Z" fill="#6B48D0"/>
<path d="M195.258 161.037H186.225V130.979C186.225 117.878 175.6 107.21 162.552 107.21C149.504 107.21 138.879 117.878 138.879 130.979V161.037H129.845V130.979C129.845 112.839 144.52 98.1053 162.587 98.1053C180.653 98.1053 195.328 112.839 195.328 130.979V161.037H195.258Z" fill="url(#paint2_linear_232_178)"/>
<path d="M209.102 206.49C209.102 208.436 207.545 209.999 205.607 209.999H119.428C117.49 209.999 115.932 208.436 115.932 206.49V150.299C115.932 148.353 117.49 146.79 119.428 146.79H205.572C207.51 146.79 209.068 148.353 209.068 150.299V206.49H209.102Z" fill="url(#paint3_linear_232_178)"/>
<path d="M186.19 146.754C186.19 146.754 193.978 137.024 194.947 126.531V146.754H186.19Z" fill="#5C5A5A"/>
<path d="M209.103 206.49V172.053C180.722 196.169 139.779 205.239 116.59 208.54C117.213 209.409 118.251 209.999 119.428 209.999H205.572C207.545 210.034 209.103 208.436 209.103 206.49Z" fill="url(#paint4_linear_232_178)"/>
<path d="M170.201 168.856C170.201 164.582 166.74 161.141 162.517 161.141C158.26 161.141 154.834 164.616 154.834 168.856C154.834 171.392 156.08 173.651 157.949 175.076L155.491 192.555H169.543L167.086 175.076C168.989 173.651 170.201 171.427 170.201 168.856Z" fill="#72716F"/>
<path d="M155.491 192.554C155.491 192.554 166.463 188.35 167.293 176.396L169.578 192.554H155.491Z" fill="#5C5A5A"/>
<defs>
<filter id="filter0_f_232_178" x="0" y="0" width="324.965" height="227.149" filterUnits="userSpaceOnUse" color-interpolation-filters="sRGB">
<feFlood flood-opacity="0" result="BackgroundImageFix"/>
<feBlend mode="normal" in="SourceGraphic" in2="BackgroundImageFix" result="shape"/>
<feGaussianBlur stdDeviation="25" result="effect1_foregroundBlur_232_178"/>
</filter>
<linearGradient id="paint0_linear_232_178" x1="107.5" y1="61" x2="242.5" y2="177" gradientUnits="userSpaceOnUse">
<stop stop-color="#AE93FF"/>
<stop offset="1" stop-color="#6A42DE"/>
</linearGradient>
<linearGradient id="paint1_linear_232_178" x1="107.5" y1="55" x2="242.5" y2="171" gradientUnits="userSpaceOnUse">
<stop stop-color="#AE93FF"/>
<stop offset="1" stop-color="#6A42DE"/>
</linearGradient>
<linearGradient id="paint2_linear_232_178" x1="162.587" y1="98.1053" x2="162.587" y2="161.037" gradientUnits="userSpaceOnUse">
<stop stop-color="#72716F"/>
<stop offset="1" stop-color="#5B5953"/>
</linearGradient>
<linearGradient id="paint3_linear_232_178" x1="126" y1="151.5" x2="198" y2="206.5" gradientUnits="userSpaceOnUse">
<stop stop-color="#FFEA97"/>
<stop offset="1" stop-color="#EBC428"/>
</linearGradient>
<linearGradient id="paint4_linear_232_178" x1="162.846" y1="172.053" x2="162.846" y2="210" gradientUnits="userSpaceOnUse">
<stop stop-color="#EAB531"/>
<stop offset="1" stop-color="#EAB531" stop-opacity="0"/>
</linearGradient>
</defs>
</svg>
