<svg width="59" height="36" viewBox="0 0 59 36" fill="none" xmlns="http://www.w3.org/2000/svg">
<path fill-rule="evenodd" clip-rule="evenodd" d="M0 0H2.82177V24.1535H0V0ZM18.8466 21.7004C18.2727 22.8798 16.5988 24.5781 13.3944 24.5781C9.90308 24.5781 7.12914 22.5496 7.12914 19.0115C7.12914 14.8601 10.8477 14.1171 14.2553 13.6807C14.8172 13.6094 15.3239 13.5535 15.778 13.5033C18.0297 13.2545 18.9901 13.1484 18.9901 12.0296V11.9352C18.9901 9.61187 17.7108 8.2556 15.1162 8.2556C12.4259 8.2556 10.9553 9.67084 10.3335 10.9917L7.65523 10.0482C9.09003 6.746 12.2466 5.80251 15.0205 5.80251C17.364 5.80251 21.8119 6.46295 21.8119 12.2183V24.1535H18.9901V21.7004H18.8466ZM9.95091 19.153C9.95091 21.0872 11.577 22.0778 13.8249 22.0778C17.1727 22.0778 18.9901 19.8606 18.9901 17.5962V15.0488C18.547 15.5733 15.7633 15.8953 14.4058 16.0524C14.2982 16.0648 14.1996 16.0762 14.1118 16.0866C11.9118 16.3697 9.95091 17.0301 9.95091 19.153ZM26.4361 24.1535H40.8319V21.5589H30.3579V21.3702L40.4971 8.2556V6.03838H26.7709V8.63299H36.8623V8.82169L26.4361 22.0306V24.1535ZM56.0348 21.7004C55.4608 22.8798 53.7869 24.5781 50.5825 24.5781C47.0912 24.5781 44.3173 22.5496 44.3173 19.0115C44.3173 14.8601 48.0358 14.1171 51.4434 13.6807C52.0053 13.6094 52.512 13.5535 52.9661 13.5033C55.2178 13.2545 56.1782 13.1484 56.1782 12.0296V11.9352C56.1782 9.61187 54.8989 8.2556 52.3043 8.2556C49.614 8.2556 48.1434 9.67084 47.5216 10.9917L44.8433 10.0482C46.2781 6.746 49.4347 5.80251 52.2086 5.80251C54.5521 5.80251 59 6.46295 59 12.2183V24.1535H56.1782V21.7004H56.0348ZM47.139 19.153C47.139 21.0872 48.7651 22.0778 51.013 22.0778C54.3608 22.0778 56.1782 19.8606 56.1782 17.5962V15.0488C55.7351 15.5733 52.9514 15.8953 51.5939 16.0524C51.4863 16.0648 51.3877 16.0762 51.2999 16.0866C49.0999 16.3697 47.139 17.0301 47.139 19.153ZM19.3582 28.9901C25.2735 34.3099 41.3135 41.6279 58.5608 29.0712L57.0894 27.0501C41.063 38.718 26.338 31.905 21.03 27.1313L19.3582 28.9901Z" fill="#FEFEFE"/>
</svg>
