<svg width="279" height="232" viewBox="0 0 279 232" fill="none" xmlns="http://www.w3.org/2000/svg">
<g clip-path="url(#clip0_1_117)">
<path d="M199.319 52.5231H197.336C196.945 52.5231 196.628 52.8407 196.628 53.2325V79.8797C196.628 80.2714 196.945 80.589 197.336 80.589H199.319C199.71 80.589 200.027 80.2714 200.027 79.8797V53.2325C200.027 52.8407 199.71 52.5231 199.319 52.5231Z" fill="#3F3D56"/>
<path d="M186.409 0H96.8274C90.171 0 84.7749 5.40739 84.7749 12.0777V219.458C84.7749 226.128 90.171 231.535 96.8274 231.535H186.409C193.066 231.535 198.462 226.128 198.462 219.458V12.0777C198.462 5.40739 193.066 0 186.409 0Z" fill="#3F3D56"/>
<path d="M182.638 6.03082H169.597V7.60288C169.597 8.58142 169.405 9.55038 169.031 10.4544C168.657 11.3584 168.109 12.1797 167.419 12.8715C166.728 13.5632 165.908 14.1118 165.006 14.4859C164.104 14.86 163.136 15.0523 162.16 15.0518H120.686C119.709 15.0523 118.742 14.86 117.84 14.4859C116.938 14.1118 116.118 13.5632 115.427 12.8715C114.736 12.1797 114.189 11.3584 113.815 10.4544C113.441 9.55038 113.248 8.58142 113.248 7.60288V6.03082H101.038C98.6437 6.03082 96.3471 6.98408 94.6538 8.6809C92.9605 10.3777 92.0093 12.6791 92.0093 15.0787V216.472C92.0093 218.872 92.9605 221.173 94.6538 222.87C96.3471 224.567 98.6437 225.52 101.038 225.52H182.638C185.033 225.52 187.33 224.567 189.023 222.87C190.716 221.173 191.668 218.872 191.668 216.472V15.0942C191.67 13.9047 191.437 12.7265 190.985 11.627C190.532 10.5275 189.867 9.52819 189.028 8.68637C188.19 7.84455 187.194 7.1767 186.097 6.72103C185.001 6.26537 183.825 6.03082 182.638 6.03082Z" fill="#FCFCFC"/>
<path d="M145.331 6.91458H131.849C131.188 6.91458 130.652 7.4513 130.652 8.11337V8.94447C130.652 9.60654 131.188 10.1433 131.849 10.1433H145.331C145.992 10.1433 146.528 9.60654 146.528 8.94447V8.11337C146.528 7.4513 145.992 6.91458 145.331 6.91458Z" fill="#E6E8EC"/>
<path d="M150.759 10.3626C151.769 10.3626 152.589 9.54169 152.589 8.52907C152.589 7.51646 151.769 6.69557 150.759 6.69557C149.748 6.69557 148.929 7.51646 148.929 8.52907C148.929 9.54169 149.748 10.3626 150.759 10.3626Z" fill="#E6E8EC"/>
<path d="M142.312 140.162C154.19 140.162 163.819 130.513 163.819 118.61C163.819 106.708 154.19 97.059 142.312 97.059C130.435 97.059 120.806 106.708 120.806 118.61C120.806 130.513 130.435 140.162 142.312 140.162Z" fill="#FCFCFC"/>
<path d="M170.599 115.601C170.599 121.298 168.913 126.867 165.755 131.603C162.596 136.34 158.107 140.032 152.854 142.212C147.602 144.392 141.822 144.962 136.247 143.85C130.671 142.739 125.549 139.995 121.53 135.967C117.51 131.938 114.772 126.806 113.663 121.218C112.555 115.631 113.124 109.839 115.3 104.576C117.475 99.313 121.16 94.8146 125.887 91.6497C130.614 88.4848 136.171 86.7957 141.856 86.7958C145.631 86.796 149.369 87.5411 152.856 88.9888C156.343 90.4364 159.512 92.5582 162.181 95.233C164.85 97.9078 166.967 101.083 168.412 104.578C169.856 108.073 170.599 111.818 170.599 115.601ZM138.534 130.848L159.856 109.481C160.028 109.308 160.165 109.104 160.258 108.878C160.352 108.652 160.4 108.411 160.4 108.166C160.4 107.922 160.352 107.68 160.258 107.455C160.165 107.229 160.028 107.024 159.856 106.852L157.232 104.242C157.06 104.069 156.856 103.932 156.631 103.839C156.407 103.745 156.166 103.697 155.922 103.697C155.679 103.697 155.438 103.745 155.213 103.839C154.988 103.932 154.784 104.069 154.612 104.242L137.222 121.669L129.102 113.513C128.753 113.166 128.282 112.971 127.79 112.971C127.299 112.971 126.827 113.166 126.479 113.513L123.855 116.158C123.508 116.507 123.314 116.979 123.314 117.472C123.314 117.965 123.508 118.437 123.855 118.786L135.911 130.863C136.083 131.036 136.287 131.173 136.512 131.267C136.737 131.36 136.979 131.409 137.222 131.409C137.466 131.409 137.707 131.36 137.933 131.267C138.158 131.173 138.362 131.036 138.534 130.863L138.534 130.848Z" fill="#9775FA"/>
<path d="M255.011 230.96C262.692 230.96 268.92 229.905 268.92 228.603C268.92 227.301 262.692 226.246 255.011 226.246C247.329 226.246 241.102 227.301 241.102 228.603C241.102 229.905 247.329 230.96 255.011 230.96Z" fill="#9775FA"/>
<path d="M260.763 224.749C261.397 224.229 261.859 223.53 262.088 222.742C262.261 221.948 261.922 221.007 261.161 220.7C260.31 220.374 259.399 220.967 258.712 221.563C258.025 222.159 257.231 222.842 256.328 222.714C256.793 222.293 257.141 221.758 257.339 221.162C257.536 220.567 257.576 219.93 257.454 219.314C257.413 219.058 257.305 218.819 257.139 218.62C256.669 218.114 255.81 218.329 255.247 218.731C253.448 219.996 252.947 222.448 252.936 224.648C252.753 223.854 252.909 223.025 252.902 222.221C252.895 221.417 252.677 220.487 251.989 220.062C251.564 219.834 251.087 219.721 250.605 219.736C249.796 219.705 248.896 219.788 248.343 220.381C247.651 221.115 247.838 222.35 248.433 223.154C249.028 223.958 249.938 224.474 250.775 225.032C251.444 225.433 252.014 225.979 252.444 226.631C252.496 226.722 252.537 226.818 252.568 226.918H257.621C258.761 226.34 259.818 225.611 260.762 224.75L260.763 224.749Z" fill="#9775FA"/>
<path d="M65.9075 232C70.9769 232 75.0864 231.304 75.0864 230.445C75.0864 229.586 70.9769 228.889 65.9075 228.889C60.8381 228.889 56.7285 229.586 56.7285 230.445C56.7285 231.304 60.8381 232 65.9075 232Z" fill="#EFEFEF"/>
<path d="M69.7038 227.901C70.1221 227.558 70.4269 227.096 70.578 226.576C70.6445 226.315 70.6201 226.04 70.5089 225.795C70.3976 225.55 70.2062 225.35 69.9662 225.229C69.4045 225.014 68.8042 225.405 68.3501 225.799C67.896 226.192 67.373 226.643 66.7774 226.558C67.084 226.28 67.3135 225.927 67.4435 225.534C67.5735 225.141 67.5996 224.721 67.5192 224.314C67.4925 224.146 67.4207 223.988 67.3115 223.857C67.0024 223.523 66.4348 223.665 66.063 223.93C64.876 224.766 64.5449 226.382 64.5381 227.835C64.4172 227.311 64.5198 226.764 64.5152 226.233C64.5106 225.703 64.3668 225.09 63.9124 224.809C63.6322 224.658 63.3172 224.584 62.9993 224.594C62.4651 224.573 61.8716 224.628 61.5063 225.019C61.0497 225.504 61.173 226.319 61.5656 226.849C61.9582 227.38 62.5585 227.721 63.1112 228.088C63.553 228.352 63.9299 228.712 64.2138 229.141C64.248 229.202 64.2756 229.265 64.296 229.331H67.6311C68.3831 228.95 69.0803 228.468 69.7038 227.899V227.901Z" fill="#EFEFEF"/>
<path d="M13.9968 232C19.0662 232 23.1758 231.304 23.1758 230.445C23.1758 229.586 19.0662 228.889 13.9968 228.889C8.92743 228.889 4.81787 229.586 4.81787 230.445C4.81787 231.304 8.92743 232 13.9968 232Z" fill="#EFEFEF"/>
<path d="M17.7931 227.901C18.2114 227.558 18.5162 227.096 18.6673 226.576C18.7339 226.315 18.7095 226.04 18.5982 225.795C18.487 225.55 18.2955 225.35 18.0556 225.229C17.4939 225.014 16.8936 225.405 16.4395 225.799C15.9854 226.192 15.4624 226.643 14.8667 226.558C15.1733 226.28 15.4028 225.927 15.5328 225.534C15.6628 225.141 15.689 224.721 15.6086 224.314C15.5818 224.146 15.5101 223.988 15.4009 223.857C15.0917 223.523 14.5242 223.665 14.1523 223.93C12.9653 224.766 12.6342 226.382 12.6274 227.835C12.5066 227.311 12.6092 226.764 12.6046 226.233C12.5999 225.703 12.4562 225.09 12.0018 224.809C11.7215 224.658 11.4066 224.584 11.0886 224.594C10.5545 224.573 9.961 224.628 9.59562 225.019C9.13905 225.504 9.26238 226.319 9.65496 226.849C10.0475 227.38 10.6478 227.721 11.2005 228.088C11.6423 228.352 12.0192 228.712 12.3032 229.141C12.3374 229.202 12.365 229.265 12.3854 229.331H15.7205C16.4725 228.95 17.1697 228.468 17.7931 227.899V227.901Z" fill="#EFEFEF"/>
<path d="M279 231.112H0V231.676H279V231.112Z" fill="#2F2E41"/>
<path d="M265.381 15.6506C265.381 15.6506 236.256 13.8895 239.687 34.3408C239.687 34.3408 238.995 37.9561 242.275 39.5957C242.275 39.5957 242.327 38.0809 245.263 38.5973C246.309 38.771 247.371 38.8221 248.428 38.7497C249.855 38.6557 251.212 38.0997 252.295 37.1656C252.295 37.1656 260.483 33.7755 263.665 20.368C263.665 20.368 266.021 17.4425 265.927 16.6901L261.012 18.7941C261.012 18.7941 262.693 22.3471 261.358 25.2991C261.358 25.2991 261.199 18.9211 260.255 19.0598C260.065 19.0877 257.702 20.2902 257.702 20.2902C257.702 20.2902 260.591 26.4775 258.411 30.9771C258.411 30.9771 259.238 23.3513 256.799 20.7375L253.34 22.7618C253.34 22.7618 256.716 29.1538 254.426 34.3706C254.426 34.3706 255.014 26.3703 252.61 23.254L249.476 25.7046C249.476 25.7046 252.648 32.0027 250.715 36.3295C250.715 36.3295 250.462 27.0189 248.798 26.3155C248.798 26.3155 246.055 28.7418 245.637 29.7331C245.637 29.7331 247.809 34.3086 246.46 36.7211C246.46 36.7211 245.633 30.5165 244.955 30.4818C244.955 30.4818 242.222 34.5927 241.939 37.4143C241.939 37.4143 242.056 33.2235 244.294 30.0937C244.294 30.0937 241.651 30.5478 240.109 32.262C240.109 32.262 240.534 29.3573 244.969 29.1009C244.969 29.1009 247.227 25.9812 247.829 25.7941C247.829 25.7941 243.422 25.4224 240.748 26.6122C240.748 26.6122 243.101 23.8705 248.639 25.1182L251.735 22.5843C251.735 22.5843 245.93 21.7904 243.468 22.6677C243.468 22.6677 246.301 20.2413 252.568 22.0091L255.938 19.9916C255.938 19.9916 250.988 18.9238 248.041 19.2983C248.041 19.2983 251.154 17.6173 256.927 19.4405L259.348 18.3564C259.348 18.3564 255.723 17.6423 254.661 17.528C253.599 17.4137 253.544 17.1226 253.544 17.1226C255.84 16.7388 258.198 17.0017 260.355 17.8818C260.355 17.8818 265.468 15.973 265.381 15.6506Z" fill="#9775FA"/>
<path d="M225.475 4.82334C225.475 4.82334 212.331 4.02942 213.866 13.2706C213.866 13.2706 213.557 14.9034 215.036 15.645C215.036 15.645 215.06 14.9517 216.388 15.1909C216.86 15.2704 217.339 15.2937 217.816 15.2603C218.462 15.2175 219.075 14.9642 219.563 14.5391C219.563 14.5391 223.264 13.007 224.703 6.94802C224.703 6.94802 225.765 5.6275 225.723 5.28768L223.503 6.23742C223.503 6.23742 224.26 7.84231 223.665 9.17678C223.665 9.17678 223.593 6.29597 223.167 6.36226C223.081 6.36226 222.012 6.91983 222.012 6.91983C222.012 6.91983 223.319 9.71701 222.334 11.7485C222.334 11.7485 222.707 8.30294 221.604 7.12087L220.04 8.05017C220.04 8.05017 221.566 10.9375 220.531 13.2948C220.531 13.2948 220.798 9.67953 219.712 8.27227L218.297 9.38153C218.297 9.38153 219.729 12.2273 218.857 14.1829C218.857 14.1829 218.74 9.97473 217.989 9.65599C217.989 9.65599 216.751 10.7513 216.56 11.202C216.56 11.202 217.543 13.2818 216.934 14.3598C216.934 14.3598 216.56 11.5555 216.242 11.5409C216.242 11.5409 215.007 13.3995 214.879 14.6606C214.941 13.4841 215.308 12.3443 215.945 11.3538C215.232 11.4891 214.574 11.8301 214.053 12.3348C214.053 12.3348 214.246 11.0211 216.249 10.9068C216.249 10.9068 217.287 9.49615 217.543 9.40942C217.543 9.40942 215.551 9.24307 214.343 9.78113C214.343 9.78113 215.405 8.54362 217.906 9.10522L219.29 7.96126C219.29 7.96126 216.665 7.61123 215.552 7.9972C215.552 7.9972 216.832 6.90187 219.665 7.6992L221.187 6.78756C221.187 6.78756 218.949 6.30588 217.618 6.4778C217.618 6.4778 219.025 5.71856 221.634 6.53975L222.723 6.05094C222.723 6.05094 221.085 5.72848 220.603 5.67644C220.121 5.6244 220.098 5.49274 220.098 5.49274C221.136 5.31964 222.202 5.43967 223.176 5.83937C223.176 5.83937 225.516 4.96769 225.475 4.82334Z" fill="#3F3D56"/>
<path d="M44.6948 145.902C44.6948 145.902 31.5505 145.108 33.0862 154.349C33.0862 154.349 32.7771 155.982 34.2553 156.723C34.2553 156.723 34.2794 156.03 35.6077 156.269C36.0794 156.349 36.5589 156.372 37.0361 156.339C37.6814 156.296 38.2949 156.043 38.783 155.618C38.783 155.618 42.484 154.085 43.923 148.026C43.923 148.026 44.9848 146.706 44.9431 146.366L42.7224 147.316C42.7224 147.316 43.48 148.921 42.885 150.255C42.885 150.255 42.8123 147.374 42.387 147.441C42.3004 147.441 41.2315 147.998 41.2315 147.998C41.2315 147.998 42.5391 150.795 41.5533 152.827C41.5533 152.827 41.9267 149.381 40.8234 148.199L39.2599 149.129C39.2599 149.129 40.7854 152.016 39.7511 154.373C39.7511 154.373 40.0176 150.758 38.9313 149.351L37.5165 150.46C37.5165 150.46 38.9486 153.306 38.0769 155.261C38.0769 155.261 37.9595 151.053 37.2086 150.734C37.2086 150.734 35.9703 151.83 35.7799 152.28C35.7799 152.28 36.7623 154.36 36.1536 155.438C36.1536 155.438 35.7799 152.634 35.4618 152.619C35.4618 152.619 34.2269 154.478 34.0989 155.739C34.1607 154.563 34.528 153.423 35.1644 152.432C34.4518 152.567 33.7942 152.908 33.2723 153.413C33.2723 153.413 33.4661 152.1 35.4689 151.985C35.4689 151.985 36.5066 150.575 36.7626 150.488C36.7626 150.488 34.7703 150.321 33.5629 150.86C33.5629 150.86 34.6247 149.622 37.1258 150.184L38.5094 149.04C38.5094 149.04 35.885 148.69 34.7722 149.076C34.7722 149.076 36.0519 147.98 38.885 148.778L40.4071 147.866C40.4071 147.866 38.1691 147.384 36.8374 147.556C36.8374 147.556 38.2451 146.797 40.8534 147.618L41.9431 147.129C41.9431 147.129 40.3048 146.807 39.8225 146.755C39.3403 146.703 39.3174 146.571 39.3174 146.571C40.3558 146.398 41.4218 146.518 42.3959 146.918C42.3959 146.918 44.7353 146.046 44.6948 145.902Z" fill="#3F3D56"/>
</g>
<defs>
<clipPath id="clip0_1_117">
<rect width="279" height="232" fill="white"/>
</clipPath>
</defs>
</svg>
